<svg xmlns="http://www.w3.org/2000/svg" version="1.1" xmlns:xlink="http://www.w3.org/1999/xlink" xmlns:svgjs="http://svgjs.dev/svgjs" width="100%" height="100%" viewBox="0 0 1000 600"><rect width="1000" height="600" x="0" y="0" fill="#000000"/><g><rect width="333.3333333333333" height="333.3333333333333" rx="13.333333333333334" ry="13.333333333333334" y="181.1415795297364" fill="#50c878" transform="matrix(0.7865624859576805,0,0,0.7865624859576805,0,26.427073839430733)" x="158.9193878173828"/><path d="M272.6098712603342 422.808246620374L222.996777524294 422.808246620374L222.996777524294 272.8082511616802L272.6098712603342 272.8082511616802Q288.14558507569893 272.8082511616802 301.7467751401083 278.6415843184071Q315.3479652045176 284.47491747513413 325.6455839403724 294.83206001871065Q335.9134407723663 305.1594406584262 341.77653583295415 318.7308688189747Q347.6098689896811 332.2725350756624 347.6098689896811 347.8082488910271L347.6098689896811 347.8082488910271Q347.6098689896811 363.34396270639184 341.77653583295415 376.8856289630795Q335.9134407723663 390.4570571236279 325.6455839403724 400.7844377633436Q315.3479652045176 411.1415803069201 301.7467751401083 416.974913463647Q288.14558507569893 422.808246620374 272.6098712603342 422.808246620374L272.6098712603342 422.808246620374ZM237.99677707016338 287.8082507075495L237.99677707016338 407.8082470745046L272.6098712603342 407.8082470745046Q285.02058517030946 407.8082470745046 295.9134419833813 403.1356281683509Q306.7765368925923 398.492771166058 315.02058426204826 390.248723796602Q323.2943935353651 381.9749145232852 327.937250537658 371.1118196140742Q332.60986944381176 360.2487247048632 332.60986944381176 347.8082488910271L332.60986944381176 347.8082488910271Q332.60986944381176 335.36777307719103 327.937250537658 324.50467816798005Q323.2943935353651 313.64158325876906 314.9908223581874 305.36777398545223Q306.6872511810097 297.12372661599625 295.8539181756596 292.4808696137033Q285.02058517030946 287.8082507075495 272.6098712603342 287.8082507075495L272.6098712603342 287.8082507075495L237.99677707016338 287.8082507075495ZM381.56820129491325 422.808246620374L366.56820174904385 422.808246620374L366.56820174904385 315.66539272130694L381.56820129491325 315.66539272130694L381.56820129491325 330.45705894015043Q387.2527249323359 322.302297282277 396.3598675137566 317.4808688568189Q405.46701009517733 312.65944043136096 416.1812954850841 312.65944043136096L416.1812954850841 312.65944043136096Q422.4015333920021 312.65944043136096 428.1753427410074 314.2665832398469L428.1753427410074 314.2665832398469L422.07415244953273 329.1772970741338Q417.5801049665441 327.77848759267374 413.2943908105814 327.77848759267374L413.2943908105814 327.77848759267374Q404.6039148832126 327.77848759267374 397.37177224502557 332.0642017486364Q390.1396296068385 336.34991590459913 385.8539154508759 343.52253473506437Q381.56820129491325 350.6951535655297 381.56820129491325 359.474915204481L381.56820129491325 359.474915204481L381.56820129491325 422.808246620374Z " fill="#000000" transform="matrix(0.7865624859576805,0,0,0.7865624859576805,0,26.427073839430733)"/><path d="M661.5889711589913 339.6448010682353L661.5889711589913 282.63715493994835L675.3494374658192 282.63715493994835L675.3494374658192 420.24181800822737L661.5889711589913 420.24181800822737L661.5889711589913 353.4052673750633L589.3465230481448 353.4052673750633L589.3465230481448 420.24181800822737L575.586056741317 420.24181800822737L575.586056741317 282.63715493994835L589.3465230481448 282.63715493994835L589.3465230481448 339.6448010682353L661.5889711589913 339.6448010682353ZM741.5034252861445 422.8082541845008L741.5034252861445 422.8082541845008Q727.9340765669115 422.8082541845008 716.7673489488707 415.8188109810327Q705.6279238433433 408.82936777756447 698.9934133025513 397.0892873967391Q692.3589027617593 385.34920701591375 692.3589027617593 371.097295483842L692.3589027617593 371.097295483842Q692.3589027617593 360.2855005284772 696.1812545136559 350.89343622381693Q700.0309087780661 341.50137191915655 706.7473268563987 334.3754161531207Q713.4910474472449 327.2494603870848 722.418969039175 323.2359910475934Q731.3741931436184 319.1952191955884 741.5034252861445 319.1952191955884L741.5034252861445 319.1952191955884Q752.3971277790499 319.1952191955884 761.5980744961155 323.53631868524235Q770.7990212131809 327.8501156623829 777.4335317539729 335.6040292162304Q784.0680422947651 343.3852452825913 787.4535538464448 353.78750255025295Q790.8390653981247 364.2170623304281 790.2384101228267 376.3120753739296L790.2384101228267 376.3120753739296L706.91114193148 376.3120753739296Q708.0851499695625 385.6495346535628 712.8357871469198 393.02121303222054Q717.6137268367906 400.3928914108784 725.0400102404755 404.6520833629918Q732.4662936441604 408.9385778276187 741.5034252861445 409.04778787767293L741.5034252861445 409.04778787767293Q751.3323297910216 409.04778787767293 759.2500584199504 403.91491552512593Q767.1404845363656 398.8093456850926 771.9730292512635 389.88142409316265L771.9730292512635 389.88142409316265L785.9246131456862 393.10312056976124Q780.02727044276 406.18102406375044 768.1233749868534 414.48098786786886Q756.2467820434601 422.8082541845008 741.5034252861445 422.8082541845008ZM706.5016042437768 365.19995278091574L706.5016042437768 365.19995278091574L776.3960362784582 365.19995278091574Q775.7134734656195 356.05361108887735 770.8263237256945 348.4362100975976Q765.9664764982831 340.8188091063179 758.2944704819762 336.25928951655544Q750.6497669781829 331.6724674142796 741.5034252861445 331.6724674142796L741.5034252861445 331.6724674142796Q732.3570835941061 331.6724674142796 724.7942876278535 336.1500794665013Q717.2314916616009 340.62769151872305 712.3989469467031 348.2450925100028Q707.5937047443186 355.86249350128253 706.5016042437768 365.19995278091574ZM887.3534471335149 340.327363881074L886.8620019082709 321.95277295945664L900.6224682150989 321.95277295945664L900.6224682150989 420.24181800822737L886.8620019082709 420.24181800822737L886.3705566830272 401.9491346241506Q881.5653144806429 411.2865939037838 872.9104180138482 417.0474240441423Q864.2555215470537 422.8082541845008 852.2697185536065 422.8082541845008L852.2697185536065 422.8082541845008Q841.4579235982417 422.8082541845008 832.0112542685542 418.7128773074687Q822.5918874513804 414.64480294295015 815.4113266603174 407.4642421518871Q808.2307658692545 400.2836813608242 804.217296529763 390.8643145436504Q800.1765246777579 381.41764521396294 800.1765246777579 370.60585025859814L800.1765246777579 370.60585025859814Q800.1765246777579 359.98517289082815 804.1626915047359 350.64771361119494Q808.1488583317139 341.31025433156174 815.1656040476955 334.23890359055304Q822.1823497636772 327.1675528495442 831.4925065307968 323.18138602256624Q840.775360785403 319.1952191955884 851.3960381531729 319.1952191955884L851.3960381531729 319.1952191955884Q863.6821687842693 319.1952191955884 872.8012079637941 325.0379568734875Q881.9475496558325 330.9079970639002 887.3534471335149 340.327363881074L887.3534471335149 340.327363881074ZM851.9693909159574 409.43002305286257L851.9693909159574 409.43002305286257Q862.4808582336732 409.43002305286257 870.0709567124393 404.26984818780215Q877.633752678692 399.1096733227416 881.7018270432105 390.3728693184065Q885.7972039202427 381.60876280155776 885.7972039202427 371.097295483842L885.7972039202427 371.097295483842Q885.7972039202427 360.2855005284772 881.6472220181835 351.5759990366556Q877.5245426286378 342.89380005734756 869.9617466623852 337.7882302173141Q862.3989506961325 332.6553578647672 851.9693909159574 332.6553578647672L851.9693909159574 332.6553578647672Q841.5671336482958 332.6553578647672 832.9668422065284 337.81553272982774Q824.366550764761 342.97570759488815 819.2882834372411 351.7398141117369Q814.2373186222349 360.476618116072 814.2373186222349 371.097295483842L814.2373186222349 371.097295483842Q814.2373186222349 381.7998803891526 819.4520985123224 390.50938188097416Q824.6395758898965 399.21888337279586 833.2398673316638 404.3244532128292Q841.8401587734313 409.43002305286257 851.9693909159574 409.43002305286257ZM935.3239616198177 420.24181800822737L921.5634953129897 420.24181800822737L921.5634953129897 272.8082504350713L935.3239616198177 272.8082504350713L935.3239616198177 420.24181800822737ZM1009.14995545645 321.95277295945664L1009.14995545645 335.7132392662845L985.6424921822855 335.7132392662845L985.560584644745 420.24181800822737L971.800118337917 420.24181800822737L971.8820258754577 335.7132392662845L954.1080902291383 335.7132392662845L954.1080902291383 321.95277295945664L971.8820258754577 321.95277295945664L971.800118337917 291.10093381914805L985.560584644745 291.10093381914805L985.6424921822855 321.95277295945664L1009.14995545645 321.95277295945664ZM1112.4353602951996 359.4118201280437L1112.4353602951996 359.4118201280437L1112.4353602951996 420.24181800822737L1098.6748939883719 420.24181800822737L1098.6748939883719 362.14207137939843Q1098.6748939883719 354.087830187902 1094.743332186421 347.50792467213705Q1090.81177038447 340.9280191563721 1084.2318648687053 336.9964573544213Q1077.6519593529404 333.0648955524705 1069.597718161444 333.0648955524705L1069.597718161444 333.0648955524705Q1061.625384507488 333.0648955524705 1054.990873966696 336.9964573544213Q1048.356363425904 340.9280191563721 1044.424801623953 347.50792467213705Q1040.4932398220024 354.087830187902 1040.4932398220024 362.14207137939843L1040.4932398220024 362.14207137939843L1040.4932398220024 420.24181800822737L1026.7327735151744 420.24181800822737L1026.7327735151744 272.8082504350713L1040.4932398220024 272.8082504350713L1040.4932398220024 335.5221216786897Q1045.70801971209 328.0412332499777 1054.0625885412355 323.61822622278305Q1062.417157370381 319.1952191955884 1072.246061875258 319.1952191955884L1072.246061875258 319.1952191955884Q1083.3581844682717 319.1952191955884 1092.4772236477966 324.6011166732708Q1101.6235653398348 330.0070141509532 1107.0294628175175 339.1533558429916Q1112.4353602951996 348.29969753502985 1112.4353602951996 359.4118201280437Z " fill="#50c878" transform="matrix(0.7865624859576805,0,0,0.7865624859576805,0,26.427073839430733)"/></g></svg>